<svg xmlns="http://www.w3.org/2000/svg" xmlns:xlink="http://www.w3.org/1999/xlink" width="26" height="26" viewBox="0 0 26 26">
  <defs>
    <style>
      .cls-1 {
        fill: #3d4a5d;
        stroke: #000101;
        stroke-linejoin: round;
        stroke-width: 1px;
        fill-rule: evenodd;
        opacity: 0.8;
        filter: url(#filter);
      }
    </style>
    <filter id="filter" x="1678" y="597" width="27" height="27" filterUnits="userSpaceOnUse">
      <feFlood result="flood" flood-color="#fff"/>
      <feComposite result="composite" operator="in" in2="SourceGraphic"/>
      <feBlend result="blend" in2="SourceGraphic"/>
    </filter>
  </defs>
  <g transform="translate(-1678.5 -597.5)" style="fill: #3d4a5d; filter: url(#filter)">
    <path id="icn_close.svg" class="cls-1" d="M1701.74,602.514a0.8,0.8,0,0,1,0,1.14l-6.27,6.269a0.815,0.815,0,0,0,0,1.14l6.27,6.272a0.8,0.8,0,0,1,0,1.139l-2.28,2.278a0.811,0.811,0,0,1-1.14,0l-6.28-6.272a0.809,0.809,0,0,0-1.14,0l-6.27,6.267a0.809,0.809,0,0,1-1.14,0l-2.29-2.28a0.815,0.815,0,0,1,0-1.14l6.28-6.268a0.8,0.8,0,0,0,0-1.14l-6.27-6.272a0.815,0.815,0,0,1,0-1.14l2.28-2.277a0.821,0.821,0,0,1,1.15,0l6.27,6.27a0.808,0.808,0,0,0,1.14,0l6.27-6.266a0.809,0.809,0,0,1,1.14,0Z" style="stroke: inherit; filter: none; fill: inherit"/>
  </g>
  <use transform="translate(-1678.5 -597.5)" xlink:href="#icn_close.svg" style="stroke: #000101; filter: none; fill: none"/>
</svg>
